<?xml version="1.0" encoding="utf-8"?>
<!-- Generator: Adobe Illustrator 13.0.1, SVG Export Plug-In . SVG Version: 6.00 Build 14948)  -->
<!DOCTYPE svg PUBLIC "-//W3C//DTD SVG 1.1//EN" "http://www.w3.org/Graphics/SVG/1.1/DTD/svg11.dtd">
<svg version="1.1"
	 id="svg2" xmlns:dc="http://purl.org/dc/elements/1.1/" xmlns:cc="http://creativecommons.org/ns#" xmlns:svg="http://www.w3.org/2000/svg" xmlns:sodipodi="http://sodipodi.sourceforge.net/DTD/sodipodi-0.dtd" xmlns:inkscape="http://www.inkscape.org/namespaces/inkscape" xmlns:rdf="http://www.w3.org/1999/02/22-rdf-syntax-ns#" inkscape:version="0.91 r13725" sodipodi:docname="Landbank.svg"
	 xmlns="http://www.w3.org/2000/svg" xmlns:xlink="http://www.w3.org/1999/xlink" x="0px" y="0px" width="160px" height="75.926px"
	 viewBox="0 0 160 75.926" enable-background="new 0 0 160 75.926" xml:space="preserve">
<sodipodi:namedview  inkscape:snap-smooth-nodes="true" inkscape:snap-object-midpoints="true" id="base" inkscape:snap-center="true" inkscape:zoom="0.49497475" bordercolor="#666666" borderopacity="1.0" inkscape:cy="-58.88672" fit-margin-top="0" showgrid="false" fit-margin-left="0" inkscape:cx="104.40325" pagecolor="#ffffff" inkscape:pageopacity="0.0" inkscape:pageshadow="2" inkscape:document-units="px" inkscape:current-layer="g4318" inkscape:object-paths="true" inkscape:object-nodes="true" inkscape:snap-global="false" fit-margin-right="0" fit-margin-bottom="0" inkscape:window-width="1366" inkscape:window-height="705" inkscape:window-x="-8" inkscape:window-y="-8" inkscape:window-maximized="1" inkscape:snap-intersection-paths="true">
	</sodipodi:namedview>
<g id="layer2" transform="translate(-272.04725,-478.72759)" inkscape:label="Layer 2" inkscape:groupmode="layer">
	<g id="g4318">
		<g id="g4184" transform="matrix(0.26184266,0,0,0.26184266,274.62941,335.62306)">
			<g id="g4158" transform="matrix(0.45747159,0,0,0.45747159,495.93481,419.43023)">
				<path id="path4171" inkscape:connector-curvature="0" fill="#1CB14D" d="M-451.952,277.826c0,0-5.14,26.223-5.638,26.28h1.757
					c-5.271,0.546-10.513,1.333-15.706,2.36l1.427-0.444c-0.493,0.094-13.24-23.39-13.24-23.39l-27.054,8.475
					c0,0,2.935,26.565,2.474,26.765l1.741-0.542c-4.936,2.128-9.767,4.484-14.479,7.064l1.366-0.95
					c-0.44,0.236-19.631-18.36-19.631-18.36l-23.28,16.179c0,0,10.741,24.47,10.366,24.8l1.553-1.08
					c-4.121,3.55-8.071,7.288-11.838,11.21l1.097-1.41c-0.351,0.359-24.221-11.65-24.221-11.65l-17.377,22.403
					c0,0,17.569,20.137,17.308,20.561l1.182-1.525c-2.89,4.651-5.56,9.441-7.994,14.344l0.652-1.749
					c-0.228,0.444-26.598-3.877-26.598-3.877l-9.885,26.577c0,0,22.786,13.957,22.668,14.442l0.681-1.83
					c-1.374,5.328-2.491,10.721-3.351,16.154l0.102-1.92c-0.086,0.493-26.541,4.26-26.541,4.26l-1.484,28.314
					c0,0,25.917,6.506,25.95,7.007l0.024-0.477c0.355,5.841,1.007,11.654,1.957,17.426l-22.204,9.938l6.025,25.09
					c24.054,78.57,99.983,132.671,186.368,132.793c86.385-0.122,162.31-54.223,186.368-132.793l6.025-25.09l-22.33-9.995
					c1.011-6.237,1.679-12.53,2.006-18.841l0.098,1.948c0.033-0.501,25.958-7.007,25.958-7.007l-1.484-28.314
					c0,0-26.463-3.766-26.545-4.26l0.024,0.391c-0.823-4.72-1.842-9.408-3.057-14.043l0.465,1.247
					c-0.122-0.485,22.664-14.442,22.664-14.442l-9.881-26.577c0,0-26.374,4.321-26.602,3.877c-2.136-4.097-4.435-8.104-6.881-12.013
					l0.726,0.942c-0.261-0.424,17.308-20.561,17.308-20.561l-17.381-22.403c0,0-23.871,12.009-24.213,11.65l0.13,0.167
					c-3.269-3.298-6.669-6.461-10.183-9.486l0.856,0.599c-0.375-0.33,10.37-24.8,10.37-24.8l-23.284-16.179
					c0,0-19.191,18.596-19.631,18.36l0.318,0.216c-4.101-2.185-8.275-4.203-12.53-6.053l0.848,0.265
					c-0.457-0.2,2.47-26.765,2.47-26.765l-27.058-8.475c0,0-12.751,23.483-13.24,23.39l0.53,0.167
					c-4.557-0.88-9.155-1.578-13.778-2.083h0.726c-0.489-0.057-5.633-26.28-5.633-26.28H-451.952z"/>
				<path id="path4222" sodipodi:nodetypes="scscs" inkscape:connector-curvature="0" fill="#FDC14F" d="M-479.414,402.883
					c-0.285,43.18,28.787,69.721,41.146,76.858c12.355-7.138,41.427-33.678,41.142-76.858
					c-0.285-43.184-28.787-69.725-41.142-76.858C-450.627,333.158-479.129,359.698-479.414,402.883z"/>
				<path id="path4256" sodipodi:nodetypes="ccccc" inkscape:connector-curvature="0" fill="#FDC14F" d="M-611.241,543.062
					c5.132,13.219,11.732,25.705,19.599,37.257c72.101-43.763,176.499,27.67,301.201,8.992c8.919-11.54,16.501-24.152,22.534-37.616
					C-446.824,613.419-538.113,514.552-611.241,543.062z"/>
				<path id="path4258" sodipodi:nodetypes="ccccc" inkscape:connector-curvature="0" fill="#FDC14F" d="M-577.518,598.524
					c7.916,9.009,16.692,17.226,26.194,24.564c110.443-59.192,155.975-9.155,215.35,8.356c11.145-7.297,21.449-15.751,30.751-25.2
					C-399.768,619.924-471.025,549.47-577.518,598.524z"/>
				<path id="path4262" sodipodi:nodetypes="scscs" inkscape:connector-curvature="0" fill="#FDC14F" d="M-451.638,609.505
					c-27.861,0-55.719,9.229-78.611,27.67c27.234,15.62,58.805,24.556,92.475,24.556c26.586,0,51.859-5.584,74.726-15.62
					C-387.539,621.702-419.586,609.505-451.638,609.505z"/>
				<rect id="rect4315" x="-451.276" y="549.882" fill="#1CB14D" width="27.001" height="115.143"/>
				<path id="path4225" inkscape:connector-curvature="0" fill="#FDC14F" d="M-545.617,427.051c-0.978,0.016-1.871,0.061-2.678,0.13
					c-3.995,12.294-6.926,48.54,19.762,82.488c2.47,3.147,5.03,6.041,7.639,8.707c17.393,19.285,44.187,32.317,74.69,34.359v108.792
					c2.796,0.122,5.605,0.204,8.43,0.204s5.633-0.081,8.43-0.204V552.735c30.45-2.042,57.198-15.033,74.596-34.261
					c0.016-0.012,0.033-0.029,0.041-0.045c2.633-2.678,5.201-5.593,7.688-8.76c26.691-33.947,23.757-70.194,19.762-82.488
					c-0.799-0.069-1.696-0.114-2.674-0.13c-14.658-0.224-47.872,6.404-73.259,37.942c-21.604,26.838-23.846,55.519-21.849,72.268
					c-3.196,3.371-7.712,5.479-12.734,5.474c-5.018,0.004-9.539-2.103-12.742-5.474c2.001-16.749-0.245-45.43-21.849-72.268
					C-497.749,433.455-530.955,426.827-545.617,427.051z"/>
			</g>
			<g id="text4154">
				<path id="path4168" inkscape:connector-curvature="0" fill="#1CB14D" d="M-9.862,765.805h21.844v53.281h34.092v17.41H-9.862
					V765.805z"/>
				<path id="path4170" inkscape:connector-curvature="0" fill="#1CB14D" d="M99.6,824.825H74.718l-3.424,11.67H48.969l26.569-70.69
					h23.821l26.569,70.69h-22.857L99.6,824.825z M95.018,809.537l-7.812-25.413l-7.763,25.413H95.018z"/>
				<path id="path4172" inkscape:connector-curvature="0" fill="#1CB14D" d="M133.017,765.805h20.397l26.618,39.105v-39.105h20.591
					v70.69h-20.591l-26.473-38.817v38.817h-20.542V765.805z"/>
				<path id="path4174" inkscape:connector-curvature="0" fill="#1CB14D" d="M215.522,765.805h32.453
					c6.396,0,11.556,0.865,15.48,2.603c3.953,1.734,7.217,4.226,9.788,7.474c2.572,3.245,4.436,7.023,5.592,11.33
					c1.158,4.308,1.736,8.873,1.736,13.695c0,7.556-0.867,13.419-2.603,17.6c-1.704,4.147-4.082,7.634-7.137,10.465
					c-3.055,2.797-6.333,4.658-9.837,5.591c-4.791,1.29-9.13,1.932-13.02,1.932h-32.453V765.805L215.522,765.805z M237.366,781.812
					v38.623h5.352c4.565,0,7.812-0.496,9.742-1.492c1.928-1.029,3.439-2.797,4.531-5.303c1.095-2.544,1.641-6.639,1.641-12.3
					c0-7.489-1.221-12.617-3.666-15.381c-2.443-2.767-6.493-4.147-12.151-4.147H237.366z"/>
				<path id="path4176" inkscape:connector-curvature="0" fill="#1CB14D" d="M292.049,765.805h40.889
					c6.818,0,12.039,1.686,15.672,5.061c3.666,3.375,5.497,7.552,5.497,12.535c0,4.181-1.302,7.765-3.905,10.756
					c-1.734,1.992-4.278,3.565-7.62,4.725c5.08,1.22,8.809,3.327,11.189,6.314c2.409,2.961,3.618,6.691,3.618,11.189
					c0,3.666-0.854,6.959-2.558,9.887c-1.701,2.924-4.035,5.24-6.989,6.941c-1.835,1.063-4.599,1.835-8.295,2.316
					c-4.919,0.645-8.183,0.966-9.79,0.966h-37.708V765.805z M314.085,793.53h9.499c3.409,0,5.773-0.582,7.086-1.738
					c1.35-1.186,2.029-2.894,2.029-5.109c0-2.059-0.679-3.666-2.029-4.822c-1.313-1.16-3.633-1.734-6.941-1.734h-9.645V793.53z
					 M314.085,821.304h11.14c3.759,0,6.415-0.66,7.955-1.977c1.54-1.35,2.316-3.151,2.316-5.4c0-2.092-0.776-3.763-2.316-5.016
					c-1.51-1.283-4.181-1.928-8.007-1.928h-11.088V821.304z"/>
				<path id="path4178" inkscape:connector-curvature="0" fill="#1CB14D" d="M410.528,824.825h-24.884l-3.424,11.67h-22.325
					l26.569-70.69h23.821l26.569,70.69h-22.859L410.528,824.825L410.528,824.825z M405.949,809.537l-7.813-25.413l-7.765,25.413
					H405.949z"/>
				<path id="path4180" inkscape:connector-curvature="0" fill="#1CB14D" d="M443.945,765.805h20.393l26.622,39.105v-39.105h20.587
					v70.69H490.96l-26.473-38.817v38.817h-20.542V765.805z"/>
				<path id="path4182" inkscape:connector-curvature="0" fill="#1CB14D" d="M526.257,765.805h21.844v26.711l22.903-26.711h29.031
					l-25.749,26.666l26.905,44.024h-26.905l-14.903-29.076l-11.282,11.812v17.264h-21.844V765.805z"/>
			</g>
		</g>
	</g>
</g>
</svg>
